<svg xmlns="http://www.w3.org/2000/svg" viewBox="0 0 500 500"><defs><filter id="s"><feDropShadow dx="0" dy="5" stdDeviation="5" flood-opacity=".25"/></filter></defs><circle cx="250" cy="250" r="232" fill="#fff" stroke="#0b2d63" stroke-width="18"/><path d="M55 180A215 215 0 0 1 445 180" fill="none" stroke="#c8102e" stroke-width="10"/><g fill="#fff" stroke="#0b2d63" stroke-width="2" filter="url(#s)"><path d="M120 65l7 15 17 2-12 12 3 17-15-8-15 8 3-17-12-12 17-2z"/><path d="M185 43l7 15 17 2-12 12 3 17-15-8-15 8 3-17-12-12 17-2z"/><path d="M250 32l7 15 17 2-12 12 3 17-15-8-15 8 3-17-12-12 17-2z"/><path d="M315 43l7 15 17 2-12 12 3 17-15-8-15 8 3-17-12-12 17-2z"/><path d="M380 65l7 15 17 2-12 12 3 17-15-8-15 8 3-17-12-12 17-2z"/></g><g stroke="#777" stroke-width="8" fill="none" stroke-linecap="round"><path d="M250 105v135"/><path d="M250 135c-45-38-65 2-18 30 48 29 22 55 0 69"/><path d="M250 135c45-38 65 2 18 30-48 29-22 55 0 69"/></g><path d="M250 112c-28-28-65-23-90-5 32 3 56 14 90 40 34-26 58-37 90-40-25-18-62-23-90 5z" fill="#0b2d63"/><text x="250" y="330" text-anchor="middle" font-family="Georgia,serif" font-size="130" font-weight="700"><tspan fill="#0b2d63">Vi</tspan><tspan fill="#c8102e">Z</tspan><tspan fill="#0b2d63">A</tspan></text><path d="M75 390q85-45 175 0t175 0v45q-85 45-175 0T75 435z" fill="#fff" stroke="#0b2d63" stroke-width="14"/><g fill="#0b2d63"><text x="250" y="425" text-anchor="middle" font-size="45">★ ★ ★ ★ ★</text></g></svg>